<?xml version="1.0" encoding="utf-8"?>
<svg viewBox="0 0 432.996 432.996" xmlns="http://www.w3.org/2000/svg">
  <g>
    <path d="m425.496,135.998h-96.496v-72.5c0-4.142-3.358-7.5-7.5-7.5h-314c-4.142,0-7.5,3.358-7.5,7.5v226c0,4.142 3.358,7.5 7.5,7.5h96.496v72.5c0,4.142 3.358,7.5 7.5,7.5h314c4.142,0 7.5-3.358 7.5-7.5v-226c0-4.142-3.358-7.5-7.5-7.5zm-7.5,44.295h-299v-29.295h299v29.295zm-103.996-109.295v29.295h-299v-29.295h299zm-299,211v-166.705h299v20.705h-202.504c-4.142,0-7.5,3.358-7.5,7.5v138.5h-88.996zm103.996-86.705h90.622v166.705h-90.622v-166.705zm105.622,166.705v-166.705h193.378v166.705h-193.378z" style="fill: rgb(241, 116, 37);"/>
    <path d="m134.52,173.147c1.98,0 3.91-0.8 5.31-2.2 1.39-1.39 2.19-3.33 2.19-5.3 0-1.98-0.8-3.91-2.19-5.3-1.4-1.4-3.33-2.2-5.31-2.2-1.97,0-3.91,0.8-5.3,2.2-1.4,1.39-2.2,3.32-2.2,5.3 0,1.97 0.8,3.91 2.2,5.3 1.399,1.4 3.329,2.2 5.3,2.2z" style="fill: rgb(241, 116, 37);"/>
    <path d="m153.089,173.147c1.98,0 3.91-0.8 5.31-2.2 1.39-1.39 2.19-3.33 2.19-5.3s-0.8-3.91-2.19-5.31c-1.4-1.39-3.33-2.19-5.31-2.19-1.97,0-3.9,0.8-5.3,2.19-1.39,1.4-2.19,3.34-2.19,5.31s0.8,3.91 2.19,5.3c1.4,1.4 3.33,2.2 5.3,2.2z" style="fill: rgb(241, 116, 37);"/>
    <path d="m171.669,173.147c1.97,0 3.9-0.8 5.3-2.2 1.4-1.39 2.2-3.33 2.2-5.3 0-1.98-0.8-3.91-2.2-5.31-1.4-1.39-3.33-2.19-5.3-2.19-1.98,0-3.91,0.8-5.31,2.19-1.39,1.4-2.19,3.34-2.19,5.31s0.8,3.91 2.19,5.3c1.4,1.4 3.33,2.2 5.31,2.2z" style="fill: rgb(241, 116, 37);"/>
    <path d="m140.307,225.703h48c4.142,0 7.5-3.358 7.5-7.5s-3.358-7.5-7.5-7.5h-48c-4.142,0-7.5,3.358-7.5,7.5s3.358,7.5 7.5,7.5z" style="fill: rgb(241, 116, 37);"/>
    <path d="m188.307,237.703h-48c-4.142,0-7.5,3.358-7.5,7.5s3.358,7.5 7.5,7.5h48c4.142,0 7.5-3.358 7.5-7.5s-3.358-7.5-7.5-7.5z" style="fill: rgb(241, 116, 37);"/>
    <path d="m188.307,264.703h-48c-4.142,0-7.5,3.358-7.5,7.5s3.358,7.5 7.5,7.5h48c4.142,0 7.5-3.358 7.5-7.5s-3.358-7.5-7.5-7.5z" style="fill: rgb(241, 116, 37);"/>
    <path d="m357,210.703h-112.693c-4.142,0-7.5,3.358-7.5,7.5s3.358,7.5 7.5,7.5h112.693c4.142,0 7.5-3.358 7.5-7.5s-3.358-7.5-7.5-7.5z" style="fill: rgb(241, 116, 37);"/>
    <path d="m357,237.703h-112.693c-4.142,0-7.5,3.358-7.5,7.5s3.358,7.5 7.5,7.5h112.693c4.142,0 7.5-3.358 7.5-7.5s-3.358-7.5-7.5-7.5z" style="fill: rgb(241, 116, 37);"/>
    <path d="m357,264.703h-112.693c-4.142,0-7.5,3.358-7.5,7.5s3.358,7.5 7.5,7.5h112.693c4.142,0 7.5-3.358 7.5-7.5s-3.358-7.5-7.5-7.5z" style="fill: rgb(241, 116, 37);"/>
    <path d="m30.52,93.147c1.98,0 3.91-0.8 5.31-2.2 1.39-1.4 2.19-3.33 2.19-5.3s-0.8-3.91-2.19-5.3c-1.4-1.4-3.33-2.2-5.31-2.2-1.97,0-3.9,0.8-5.3,2.2-1.4,1.39-2.2,3.32-2.2,5.3 0,1.97 0.8,3.91 2.2,5.3 1.399,1.4 3.329,2.2 5.3,2.2z" style="fill: rgb(241, 116, 37);"/>
    <path d="m49.089,93.147c1.98,0 3.91-0.8 5.31-2.2 1.39-1.39 2.19-3.33 2.19-5.3 0-1.98-0.8-3.91-2.19-5.3-1.4-1.4-3.33-2.2-5.31-2.2-1.97,0-3.9,0.8-5.3,2.2-1.39,1.39-2.19,3.32-2.19,5.3 0,1.97 0.8,3.91 2.19,5.3 1.4,1.4 3.33,2.2 5.3,2.2z" style="fill: rgb(241, 116, 37);"/>
    <path d="m67.669,93.147c1.97,0 3.9-0.8 5.3-2.2s2.2-3.33 2.2-5.3-0.8-3.91-2.2-5.3c-1.39-1.4-3.33-2.2-5.3-2.2-1.98,0-3.91,0.8-5.31,2.2-1.39,1.39-2.19,3.32-2.19,5.3 0,1.97 0.8,3.91 2.19,5.3 1.4,1.4 3.33,2.2 5.31,2.2z" style="fill: rgb(241, 116, 37);"/>
    <path d="m84.307,130.703h-48c-4.142,0-7.5,3.358-7.5,7.5s3.358,7.5 7.5,7.5h48c4.142,0 7.5-3.358 7.5-7.5s-3.358-7.5-7.5-7.5z" style="fill: rgb(241, 116, 37);"/>
    <path d="m84.307,157.703h-48c-4.142,0-7.5,3.358-7.5,7.5s3.358,7.5 7.5,7.5h48c4.142,0 7.5-3.358 7.5-7.5s-3.358-7.5-7.5-7.5z" style="fill: rgb(241, 116, 37);"/>
    <path d="m84.307,184.703h-48c-4.142,0-7.5,3.358-7.5,7.5s3.358,7.5 7.5,7.5h48c4.142,0 7.5-3.358 7.5-7.5s-3.358-7.5-7.5-7.5z" style="fill: rgb(241, 116, 37);"/>
  </g>
</svg>